<?xml version="1.0" standalone="no"?>
<!DOCTYPE svg PUBLIC "-//W3C//DTD SVG 20010904//EN"
 "http://www.w3.org/TR/2001/REC-SVG-20010904/DTD/svg10.dtd">
<svg version="1.0" xmlns="http://www.w3.org/2000/svg"
 width="512.000000pt" height="512.000000pt" viewBox="0 0 512.000000 512.000000"
 preserveAspectRatio="xMidYMid meet">
<metadata>
Created by potrace 1.11, written by Peter Selinger 2001-2013
</metadata>
<g transform="translate(0.000000,512.000000) scale(0.100000,-0.100000)"
fill="#000000" stroke="none">
<path d="M2269 5116 c-2 -2 -26 -7 -54 -10 -27 -3 -63 -8 -80 -11 -39 -7 -97
-18 -110 -21 -5 -1 -26 -5 -45 -8 -46 -9 -184 -49 -245 -72 -11 -4 -22 -8 -25
-9 -102 -27 -480 -205 -480 -226 0 -5 -4 -9 -10 -9 -8 0 -107 -60 -135 -82 -5
-4 -55 -42 -110 -84 -108 -82 -418 -388 -408 -401 1 -1 -11 -16 -27 -33 -36
-38 -120 -157 -120 -170 0 -4 -3 -10 -8 -12 -22 -9 -153 -250 -225 -415 -26
-61 -85 -230 -92 -266 -2 -9 -6 -21 -9 -25 -3 -5 -7 -19 -10 -33 -3 -13 -7
-34 -10 -46 -4 -13 -8 -33 -11 -45 -2 -13 -9 -43 -14 -68 -6 -25 -13 -61 -16
-80 -2 -19 -8 -57 -12 -85 -10 -64 -10 -612 -1 -685 8 -62 24 -152 33 -190 3
-14 8 -34 9 -45 5 -31 17 -77 26 -105 5 -14 23 -72 41 -130 18 -58 39 -116 46
-130 7 -14 13 -29 13 -34 0 -10 130 -276 157 -321 10 -16 21 -31 26 -33 4 -2
7 -9 7 -15 0 -18 153 -235 220 -311 14 -16 86 -90 160 -165 138 -139 227 -218
242 -214 4 2 8 -1 8 -7 0 -5 19 -22 43 -37 23 -15 44 -30 47 -33 3 -3 25 -18
50 -34 25 -16 57 -37 71 -47 72 -48 343 -181 439 -214 3 -1 12 -5 20 -8 55
-23 256 -83 310 -92 19 -3 51 -10 70 -15 19 -5 53 -11 75 -14 22 -3 63 -9 90
-13 63 -10 623 -11 690 -1 52 8 139 23 190 33 17 3 64 15 105 26 41 11 82 21
90 23 25 6 162 53 205 71 70 28 78 32 205 94 136 66 183 92 188 104 2 4 9 7
15 7 17 0 201 127 249 172 10 10 20 18 23 18 32 0 445 432 444 463 0 5 6 14
14 20 19 17 87 115 87 127 0 6 4 10 9 10 5 0 11 8 15 18 3 9 15 31 25 47 20
30 145 277 175 347 9 20 16 42 16 50 0 8 4 18 9 23 9 10 74 209 76 235 1 8 7
34 14 57 11 41 27 121 37 185 2 18 8 53 12 78 9 58 9 619 0 685 -4 28 -10 61
-13 75 -3 14 -7 39 -10 55 -4 27 -14 77 -31 155 -9 41 -77 257 -93 295 -5 11
-21 49 -36 85 -38 90 -155 314 -166 318 -5 2 -9 8 -9 13 0 16 -112 179 -123
179 -6 0 -8 3 -4 6 7 8 -101 144 -115 144 -5 0 -7 4 -4 8 7 11 -243 255 -339
332 -119 94 -316 220 -440 281 -155 77 -285 132 -285 122 0 -3 -6 -1 -12 4
-19 15 -224 78 -288 88 -19 3 -51 10 -70 15 -19 5 -57 12 -85 15 -27 4 -61 10
-75 13 -29 6 -635 13 -641 8z"/>
</g>
</svg>
